<svg xmlns="http://www.w3.org/2000/svg" xmlns:xlink="http://www.w3.org/1999/xlink" width="500" zoomAndPan="magnify" viewBox="0 0 375 374.999991" height="500" preserveAspectRatio="xMidYMid meet" version="1.0"><defs><clipPath id="014809e6f7"><path d="M 38 11 L 263.882812 11 L 263.882812 323 L 38 323 Z M 38 11 " clip-rule="nonzero"/></clipPath><clipPath id="329f1e8eb1"><path d="M 81 140 L 223 140 L 223 279.570312 L 81 279.570312 Z M 81 140 " clip-rule="nonzero"/></clipPath></defs><g clip-path="url(#014809e6f7)"><path fill="#f2ca82" d="M 263.59375 203.140625 C 263.5625 202.511719 263.5 201.886719 263.410156 201.265625 C 263.316406 200.640625 263.191406 200.027344 263.039062 199.414062 C 262.886719 198.804688 262.703125 198.203125 262.488281 197.613281 C 262.277344 197.019531 262.035156 196.441406 261.765625 195.871094 C 261.496094 195.304688 261.199219 194.75 260.871094 194.210938 C 260.546875 193.671875 260.195312 193.148438 259.820312 192.644531 C 259.445312 192.140625 259.042969 191.65625 258.621094 191.191406 C 258.195312 190.726562 257.75 190.285156 257.28125 189.863281 C 256.8125 189.445312 256.328125 189.046875 255.820312 188.675781 C 255.3125 188.300781 254.789062 187.953125 254.246094 187.632812 C 253.707031 187.3125 253.148438 187.019531 252.578125 186.753906 C 252.007812 186.488281 251.425781 186.25 250.832031 186.042969 C 250.238281 185.832031 249.636719 185.65625 249.027344 185.503906 C 248.414062 185.355469 247.796875 185.238281 247.175781 185.148438 C 246.550781 185.0625 245.925781 185.003906 245.296875 184.976562 C 244.667969 184.953125 244.039062 184.957031 243.410156 184.992188 C 242.785156 185.027344 242.160156 185.09375 241.535156 185.191406 C 240.914062 185.289062 240.300781 185.417969 239.691406 185.574219 C 239.082031 185.734375 238.480469 185.921875 237.890625 186.140625 C 237.300781 186.355469 236.722656 186.601562 236.15625 186.875 C 235.589844 187.152344 235.039062 187.453125 234.503906 187.78125 C 233.964844 188.109375 233.449219 188.464844 232.945312 188.84375 C 232.445312 189.226562 231.964844 189.628906 231.5 190.058594 C 231.039062 190.484375 230.601562 190.933594 230.183594 191.40625 C 229.765625 191.875 229.375 192.367188 229.003906 192.875 C 228.636719 193.386719 228.292969 193.914062 227.976562 194.457031 C 227.660156 195 227.371094 195.558594 227.109375 196.128906 C 226.847656 196.703125 226.613281 197.285156 226.410156 197.882812 C 226.207031 198.476562 226.03125 199.082031 225.886719 199.691406 C 225.742188 200.304688 225.628906 200.921875 225.546875 201.546875 C 225.460938 202.171875 225.410156 202.796875 225.386719 203.425781 C 225.367188 204.054688 225.375 204.683594 225.414062 205.3125 C 225.492188 206.703125 225.527344 208.121094 225.527344 209.539062 C 225.53125 211.003906 225.488281 212.472656 225.402344 213.933594 C 225.316406 215.398438 225.1875 216.859375 225.015625 218.316406 C 224.84375 219.773438 224.632812 221.222656 224.375 222.667969 C 224.117188 224.109375 223.816406 225.542969 223.476562 226.972656 C 223.132812 228.398438 222.75 229.8125 222.324219 231.214844 C 221.898438 232.617188 221.433594 234.007812 220.925781 235.382812 C 220.417969 236.761719 219.871094 238.121094 219.28125 239.464844 C 218.695312 240.808594 218.066406 242.132812 217.402344 243.4375 C 216.734375 244.746094 216.03125 246.03125 215.289062 247.296875 C 214.546875 248.5625 213.769531 249.804688 212.953125 251.023438 C 212.140625 252.242188 211.289062 253.433594 210.402344 254.605469 C 209.515625 255.773438 208.597656 256.914062 207.644531 258.03125 C 206.691406 259.144531 205.707031 260.230469 204.691406 261.285156 C 203.671875 262.34375 202.625 263.367188 201.546875 264.363281 C 200.46875 265.355469 199.363281 266.320312 198.230469 267.25 C 197.09375 268.179688 195.933594 269.074219 194.746094 269.933594 C 193.558594 270.792969 192.347656 271.621094 191.113281 272.410156 C 189.875 273.199219 188.617188 273.949219 187.335938 274.664062 C 186.058594 275.378906 184.757812 276.058594 183.4375 276.695312 C 182.117188 277.332031 180.777344 277.933594 179.421875 278.492188 C 178.066406 279.050781 176.695312 279.570312 175.308594 280.046875 C 173.921875 280.527344 172.523438 280.960938 171.109375 281.359375 C 169.699219 281.753906 168.277344 282.109375 166.84375 282.417969 C 165.410156 282.730469 163.96875 283 162.519531 283.226562 C 161.070312 283.453125 159.617188 283.636719 158.15625 283.777344 C 156.699219 283.917969 155.234375 284.015625 153.769531 284.070312 C 152.304688 284.125 150.839844 284.136719 149.371094 284.105469 C 147.90625 284.074219 146.441406 283.996094 144.980469 283.878906 C 143.519531 283.761719 142.0625 283.597656 140.609375 283.394531 C 139.15625 283.191406 137.710938 282.941406 136.273438 282.652344 C 134.835938 282.363281 133.410156 282.03125 131.992188 281.65625 C 130.574219 281.28125 129.167969 280.867188 127.773438 280.410156 C 126.382812 279.953125 125.003906 279.457031 123.636719 278.917969 C 122.273438 278.378906 120.925781 277.800781 119.597656 277.183594 C 118.265625 276.5625 116.957031 275.90625 115.664062 275.210938 C 114.375 274.515625 113.105469 273.785156 111.855469 273.011719 C 110.609375 272.242188 109.386719 271.4375 108.183594 270.59375 C 106.984375 269.75 105.808594 268.875 104.660156 267.960938 C 103.511719 267.050781 102.390625 266.105469 101.300781 265.128906 C 100.207031 264.148438 99.144531 263.140625 98.109375 262.097656 C 97.078125 261.058594 96.074219 259.988281 95.105469 258.886719 C 94.136719 257.789062 93.199219 256.660156 92.296875 255.503906 C 91.394531 254.351562 90.523438 253.167969 89.691406 251.964844 C 88.855469 250.757812 88.058594 249.527344 87.296875 248.273438 C 86.539062 247.019531 85.8125 245.746094 85.128906 244.449219 C 84.441406 243.152344 83.796875 241.835938 83.1875 240.503906 C 82.578125 239.167969 82.011719 237.816406 81.480469 236.449219 C 80.953125 235.082031 80.464844 233.699219 80.019531 232.300781 C 79.574219 230.902344 79.167969 229.496094 78.804688 228.074219 C 78.441406 226.652344 78.117188 225.222656 77.839844 223.785156 C 77.558594 222.34375 77.324219 220.898438 77.128906 219.445312 C 76.9375 217.992188 76.785156 216.53125 76.679688 215.070312 C 76.570312 213.605469 76.503906 212.144531 76.484375 210.675781 C 76.464844 209.210938 76.484375 207.746094 76.550781 206.28125 C 76.617188 204.8125 76.722656 203.351562 76.875 201.894531 C 77.027344 200.433594 77.222656 198.980469 77.460938 197.535156 C 77.695312 196.089844 77.976562 194.648438 78.296875 193.21875 C 78.621094 191.789062 78.984375 190.367188 79.390625 188.957031 C 79.796875 187.550781 80.246094 186.152344 80.734375 184.769531 C 81.222656 183.386719 81.75 182.019531 82.320312 180.667969 C 82.890625 179.316406 83.496094 177.984375 84.144531 176.667969 C 84.792969 175.351562 85.480469 174.058594 86.203125 172.78125 C 86.929688 171.507812 87.691406 170.253906 88.488281 169.023438 C 89.285156 167.792969 90.121094 166.589844 90.988281 165.40625 C 91.859375 164.226562 92.761719 163.074219 93.699219 161.945312 C 94.636719 160.816406 95.609375 159.71875 96.609375 158.648438 C 97.613281 157.578125 98.648438 156.539062 99.710938 155.527344 C 100.773438 154.519531 101.867188 153.542969 102.988281 152.597656 C 104.109375 151.652344 105.257812 150.742188 106.433594 149.867188 C 107.609375 148.988281 108.808594 148.148438 110.035156 147.339844 C 111.261719 146.535156 112.507812 145.765625 113.777344 145.03125 C 115.050781 144.300781 116.339844 143.605469 117.652344 142.949219 C 118.960938 142.292969 120.292969 141.675781 121.640625 141.097656 C 122.988281 140.519531 124.351562 139.984375 125.730469 139.484375 C 127.113281 138.988281 128.503906 138.53125 129.910156 138.117188 C 131.316406 137.703125 132.734375 137.328125 134.164062 136.996094 C 135.59375 136.667969 137.03125 136.378906 138.476562 136.128906 C 139.921875 135.882812 141.371094 135.679688 142.828125 135.519531 C 144.289062 135.359375 145.75 135.242188 147.214844 135.167969 C 148.679688 135.09375 150.144531 135.0625 151.609375 135.074219 C 153.078125 135.085938 154.542969 135.140625 156.003906 135.238281 C 157.46875 135.335938 158.925781 135.476562 160.382812 135.664062 C 161.835938 135.847656 163.285156 136.074219 164.726562 136.34375 C 166.167969 136.613281 167.601562 136.925781 169.023438 137.28125 C 170.445312 137.636719 171.855469 138.03125 173.257812 138.46875 C 174.65625 138.910156 176.042969 139.386719 177.414062 139.90625 C 178.785156 140.425781 180.140625 140.984375 181.476562 141.585938 C 182.816406 142.1875 184.136719 142.824219 185.4375 143.5 C 186.734375 144.179688 188.015625 144.894531 189.273438 145.648438 C 190.53125 146.402344 191.769531 147.191406 192.980469 148.015625 C 194.191406 148.84375 195.378906 149.703125 196.539062 150.597656 C 197.699219 151.496094 198.832031 152.425781 199.9375 153.386719 C 201.046875 154.351562 202.121094 155.34375 203.167969 156.371094 C 204.214844 157.398438 205.234375 158.457031 206.21875 159.542969 C 207.203125 160.628906 208.15625 161.742188 209.074219 162.886719 C 209.992188 164.027344 210.878906 165.195312 211.726562 166.390625 C 212.089844 166.902344 212.476562 167.394531 212.890625 167.863281 C 213.300781 168.335938 213.734375 168.789062 214.191406 169.21875 C 214.644531 169.644531 215.121094 170.050781 215.617188 170.433594 C 216.113281 170.816406 216.625 171.175781 217.15625 171.507812 C 217.6875 171.839844 218.234375 172.144531 218.792969 172.425781 C 219.355469 172.703125 219.925781 172.953125 220.511719 173.175781 C 221.097656 173.398438 221.691406 173.589844 222.296875 173.753906 C 222.902344 173.917969 223.511719 174.054688 224.128906 174.15625 C 224.746094 174.261719 225.367188 174.335938 225.992188 174.378906 C 226.617188 174.421875 227.242188 174.433594 227.867188 174.414062 C 228.492188 174.394531 229.117188 174.347656 229.738281 174.265625 C 230.359375 174.1875 230.976562 174.078125 231.585938 173.9375 C 232.195312 173.796875 232.796875 173.628906 233.390625 173.429688 C 233.984375 173.230469 234.566406 173 235.136719 172.746094 C 235.707031 172.488281 236.265625 172.203125 236.808594 171.894531 C 237.351562 171.582031 237.878906 171.246094 238.390625 170.882812 C 238.898438 170.519531 239.390625 170.132812 239.863281 169.722656 C 240.335938 169.308594 240.785156 168.875 241.214844 168.421875 C 241.644531 167.964844 242.050781 167.492188 242.433594 166.996094 C 242.816406 166.5 243.175781 165.988281 243.507812 165.457031 C 243.839844 164.925781 244.144531 164.378906 244.425781 163.820312 C 244.703125 163.257812 244.953125 162.6875 245.175781 162.101562 C 245.398438 161.515625 245.59375 160.921875 245.757812 160.316406 C 245.921875 159.710938 246.054688 159.101562 246.160156 158.484375 C 246.265625 157.867188 246.339844 157.246094 246.382812 156.621094 C 246.425781 155.996094 246.4375 155.371094 246.421875 154.746094 C 246.402344 154.121094 246.351562 153.496094 246.273438 152.875 C 246.195312 152.253906 246.085938 151.640625 245.945312 151.027344 C 245.804688 150.417969 245.636719 149.816406 245.4375 149.222656 C 245.238281 148.628906 245.011719 148.046875 244.753906 147.476562 C 244.496094 146.902344 244.214844 146.347656 243.902344 145.804688 C 243.59375 145.257812 243.253906 144.734375 242.894531 144.222656 C 240.890625 141.414062 238.765625 138.707031 236.519531 136.09375 C 234.269531 133.480469 231.90625 130.976562 229.425781 128.582031 C 226.949219 126.183594 224.367188 123.90625 221.679688 121.746094 C 218.996094 119.585938 216.214844 117.550781 213.34375 115.644531 C 210.472656 113.738281 207.515625 111.96875 204.484375 110.332031 C 201.449219 108.695312 198.347656 107.203125 195.175781 105.851562 C 192.003906 104.496094 188.777344 103.292969 185.5 102.234375 C 182.21875 101.179688 178.894531 100.273438 175.53125 99.519531 L 206.609375 36.460938 C 206.855469 35.960938 207.078125 35.449219 207.273438 34.929688 C 207.46875 34.410156 207.640625 33.878906 207.785156 33.339844 C 207.929688 32.804688 208.046875 32.257812 208.136719 31.710938 C 208.226562 31.160156 208.292969 30.609375 208.328125 30.050781 C 208.363281 29.496094 208.375 28.941406 208.355469 28.382812 C 208.339844 27.828125 208.292969 27.273438 208.222656 26.71875 C 208.148438 26.167969 208.050781 25.621094 207.921875 25.078125 C 207.796875 24.535156 207.644531 24 207.464844 23.472656 C 207.285156 22.945312 207.082031 22.425781 206.851562 21.921875 C 206.621094 21.414062 206.367188 20.917969 206.089844 20.433594 C 205.8125 19.953125 205.511719 19.484375 205.1875 19.03125 C 204.863281 18.578125 204.515625 18.144531 204.148438 17.722656 C 203.78125 17.304688 203.394531 16.90625 202.988281 16.523438 C 202.582031 16.144531 202.160156 15.785156 201.71875 15.445312 C 201.273438 15.105469 200.816406 14.789062 200.34375 14.492188 C 199.871094 14.199219 199.386719 13.929688 198.886719 13.683594 C 198.386719 13.4375 197.875 13.214844 197.355469 13.019531 C 196.835938 12.820312 196.304688 12.652344 195.765625 12.507812 C 195.226562 12.363281 194.683594 12.246094 194.136719 12.152344 C 193.585938 12.0625 193.03125 12 192.476562 11.960938 C 191.921875 11.925781 191.363281 11.917969 190.808594 11.933594 C 190.25 11.953125 189.699219 12 189.144531 12.070312 C 188.59375 12.144531 188.046875 12.242188 187.503906 12.367188 C 186.960938 12.496094 186.425781 12.648438 185.898438 12.828125 C 185.371094 13.003906 184.851562 13.210938 184.34375 13.4375 C 183.839844 13.667969 183.34375 13.921875 182.859375 14.199219 C 182.378906 14.480469 181.910156 14.78125 181.457031 15.105469 C 181.003906 15.429688 180.570312 15.773438 180.148438 16.140625 C 179.730469 16.507812 179.332031 16.894531 178.949219 17.300781 C 178.570312 17.707031 178.210938 18.132812 177.871094 18.574219 C 177.53125 19.015625 177.214844 19.472656 176.917969 19.945312 C 176.625 20.417969 176.355469 20.90625 176.109375 21.40625 L 131.542969 98.515625 L 130.851562 98.640625 L 146.109375 39.019531 C 146.289062 38.480469 146.441406 37.929688 146.5625 37.375 C 146.6875 36.820312 146.785156 36.257812 146.851562 35.691406 C 146.917969 35.128906 146.957031 34.558594 146.96875 33.992188 C 146.980469 33.421875 146.960938 32.851562 146.914062 32.285156 C 146.867188 31.71875 146.792969 31.152344 146.6875 30.59375 C 146.585938 30.03125 146.453125 29.480469 146.296875 28.933594 C 146.136719 28.386719 145.949219 27.847656 145.738281 27.320312 C 145.523438 26.792969 145.285156 26.273438 145.019531 25.769531 C 144.757812 25.265625 144.464844 24.777344 144.152344 24.300781 C 143.839844 23.828125 143.5 23.367188 143.140625 22.925781 C 142.78125 22.484375 142.398438 22.0625 141.996094 21.660156 C 141.59375 21.257812 141.171875 20.875 140.730469 20.515625 C 140.289062 20.15625 139.832031 19.816406 139.359375 19.503906 C 138.882812 19.1875 138.394531 18.898438 137.890625 18.632812 C 137.386719 18.367188 136.871094 18.128906 136.339844 17.914062 C 135.8125 17.703125 135.277344 17.515625 134.730469 17.355469 C 134.183594 17.195312 133.628906 17.066406 133.070312 16.960938 C 132.507812 16.855469 131.945312 16.78125 131.378906 16.734375 C 130.808594 16.6875 130.242188 16.667969 129.671875 16.679688 C 129.101562 16.6875 128.535156 16.726562 127.96875 16.792969 C 127.402344 16.863281 126.84375 16.957031 126.285156 17.082031 C 125.730469 17.203125 125.183594 17.355469 124.640625 17.535156 C 124.101562 17.710938 123.570312 17.917969 123.050781 18.148438 C 122.527344 18.382812 122.023438 18.636719 121.527344 18.921875 C 121.03125 19.203125 120.554688 19.511719 120.089844 19.84375 C 119.625 20.171875 119.179688 20.527344 118.753906 20.902344 C 118.324219 21.277344 117.917969 21.675781 117.527344 22.089844 C 117.140625 22.507812 116.773438 22.945312 116.429688 23.398438 C 116.085938 23.851562 115.765625 24.320312 115.46875 24.808594 C 115.171875 25.292969 114.898438 25.792969 114.652344 26.304688 C 114.40625 26.820312 114.183594 27.34375 113.988281 27.878906 C 113.796875 28.414062 113.628906 28.957031 113.488281 29.511719 L 85.121094 116.230469 L 85.121094 57.113281 C 85.152344 56.546875 85.152344 55.984375 85.128906 55.417969 C 85.101562 54.855469 85.046875 54.292969 84.964844 53.734375 C 84.882812 53.175781 84.773438 52.621094 84.636719 52.074219 C 84.5 51.523438 84.335938 50.984375 84.144531 50.453125 C 83.953125 49.921875 83.738281 49.402344 83.496094 48.890625 C 83.253906 48.378906 82.984375 47.882812 82.691406 47.398438 C 82.398438 46.917969 82.085938 46.449219 81.746094 45.996094 C 81.40625 45.542969 81.046875 45.109375 80.664062 44.695312 C 80.28125 44.277344 79.878906 43.882812 79.457031 43.507812 C 79.035156 43.128906 78.597656 42.777344 78.140625 42.445312 C 77.683594 42.113281 77.210938 41.804688 76.722656 41.519531 C 76.234375 41.234375 75.734375 40.972656 75.21875 40.738281 C 74.707031 40.503906 74.179688 40.292969 73.644531 40.113281 C 73.113281 39.929688 72.570312 39.773438 72.019531 39.644531 C 71.46875 39.515625 70.914062 39.414062 70.355469 39.339844 C 69.792969 39.269531 69.230469 39.222656 68.667969 39.207031 C 68.101562 39.1875 67.539062 39.199219 66.972656 39.238281 C 66.410156 39.277344 65.847656 39.34375 65.292969 39.4375 C 64.734375 39.53125 64.183594 39.65625 63.640625 39.804688 C 63.09375 39.953125 62.558594 40.132812 62.03125 40.335938 C 61.503906 40.539062 60.988281 40.765625 60.484375 41.019531 C 59.980469 41.277344 59.488281 41.554688 59.011719 41.859375 C 58.535156 42.160156 58.074219 42.488281 57.632812 42.835938 C 57.1875 43.1875 56.761719 43.558594 56.355469 43.949219 C 55.949219 44.339844 55.5625 44.753906 55.195312 45.183594 C 54.828125 45.613281 54.484375 46.0625 54.164062 46.527344 C 53.84375 46.992188 53.546875 47.46875 53.273438 47.964844 C 53 48.457031 52.75 48.964844 52.527344 49.484375 C 52.304688 50.003906 52.105469 50.53125 51.9375 51.070312 C 51.765625 51.609375 51.621094 52.15625 51.507812 52.707031 C 51.390625 53.261719 51.300781 53.820312 51.242188 54.378906 C 51.183594 54.941406 51.148438 55.507812 51.144531 56.070312 L 47.820312 164.058594 C 46.976562 165.96875 46.1875 167.90625 45.453125 169.859375 C 44.71875 171.816406 44.035156 173.792969 43.410156 175.785156 C 42.785156 177.777344 42.214844 179.789062 41.699219 181.8125 C 41.1875 183.839844 40.730469 185.878906 40.328125 187.929688 C 39.925781 189.980469 39.585938 192.039062 39.296875 194.109375 C 39.011719 196.179688 38.78125 198.257812 38.613281 200.339844 C 38.441406 202.421875 38.328125 204.507812 38.273438 206.597656 C 38.21875 208.683594 38.222656 210.773438 38.285156 212.863281 C 38.34375 214.953125 38.464844 217.039062 38.640625 219.121094 C 38.820312 221.203125 39.054688 223.277344 39.347656 225.347656 C 39.640625 227.414062 39.988281 229.476562 40.394531 231.523438 C 40.804688 233.574219 41.265625 235.609375 41.785156 237.636719 C 42.308594 239.660156 42.882812 241.667969 43.515625 243.660156 C 44.148438 245.648438 44.835938 247.621094 45.574219 249.578125 C 46.316406 251.53125 47.113281 253.460938 47.960938 255.371094 C 48.8125 257.28125 49.710938 259.164062 50.664062 261.023438 C 51.621094 262.882812 52.625 264.714844 53.679688 266.519531 C 54.734375 268.320312 55.839844 270.09375 56.996094 271.835938 C 58.148438 273.578125 59.351562 275.289062 60.597656 276.964844 C 61.847656 278.636719 63.144531 280.277344 64.484375 281.882812 C 65.824219 283.484375 67.207031 285.050781 68.636719 286.574219 C 70.0625 288.101562 71.53125 289.585938 73.039062 291.03125 C 74.550781 292.476562 76.097656 293.878906 77.6875 295.238281 C 79.273438 296.59375 80.898438 297.910156 82.558594 299.175781 C 84.21875 300.445312 85.914062 301.667969 87.644531 302.839844 C 89.371094 304.015625 91.132812 305.140625 92.921875 306.214844 C 94.714844 307.292969 96.535156 308.320312 98.382812 309.292969 C 100.230469 310.269531 102.105469 311.191406 104.003906 312.0625 C 105.902344 312.933594 107.828125 313.75 109.769531 314.515625 C 111.714844 315.277344 113.679688 315.988281 115.664062 316.644531 C 117.648438 317.296875 119.652344 317.898438 121.667969 318.441406 C 123.6875 318.984375 125.71875 319.472656 127.761719 319.902344 C 129.808594 320.332031 131.863281 320.707031 133.929688 321.023438 C 135.992188 321.339844 138.066406 321.597656 140.148438 321.800781 C 142.226562 322 144.3125 322.144531 146.398438 322.230469 C 148.488281 322.3125 150.574219 322.339844 152.664062 322.3125 C 154.753906 322.28125 156.839844 322.191406 158.925781 322.042969 C 161.011719 321.898438 163.089844 321.691406 165.164062 321.429688 C 167.234375 321.167969 169.300781 320.847656 171.355469 320.472656 C 173.410156 320.09375 175.453125 319.660156 177.484375 319.167969 C 179.515625 318.679688 181.53125 318.132812 183.535156 317.527344 C 185.535156 316.925781 187.515625 316.269531 189.480469 315.554688 C 191.445312 314.84375 193.386719 314.074219 195.308594 313.253906 C 197.230469 312.433594 199.128906 311.558594 201 310.632812 C 202.875 309.707031 204.722656 308.726562 206.539062 307.699219 C 208.359375 306.671875 210.148438 305.589844 211.90625 304.460938 C 213.664062 303.335938 215.390625 302.15625 217.082031 300.933594 C 218.777344 299.707031 220.433594 298.4375 222.058594 297.121094 C 223.679688 295.804688 225.265625 294.445312 226.8125 293.039062 C 228.359375 291.632812 229.867188 290.1875 231.332031 288.699219 C 232.800781 287.210938 234.222656 285.683594 235.605469 284.113281 C 236.988281 282.546875 238.324219 280.941406 239.617188 279.300781 C 240.910156 277.65625 242.15625 275.980469 243.355469 274.269531 C 244.554688 272.558594 245.703125 270.816406 246.804688 269.039062 C 247.90625 267.265625 248.960938 265.460938 249.960938 263.625 C 250.964844 261.792969 251.914062 259.929688 252.8125 258.042969 C 253.710938 256.15625 254.558594 254.246094 255.347656 252.3125 C 256.140625 250.378906 256.878906 248.425781 257.5625 246.453125 C 258.246094 244.476562 258.875 242.484375 259.449219 240.476562 C 260.023438 238.464844 260.539062 236.441406 261 234.402344 C 261.460938 232.367188 261.863281 230.316406 262.210938 228.253906 C 262.554688 226.195312 262.84375 224.125 263.078125 222.046875 C 263.308594 219.972656 263.480469 217.890625 263.597656 215.804688 C 263.714844 213.71875 263.769531 211.628906 263.769531 209.539062 C 263.769531 207.394531 263.71875 205.261719 263.59375 203.140625 Z M 263.59375 203.140625 " fill-opacity="1" fill-rule="nonzero"/></g><path fill="#ffd700" d="M 150.988281 141.171875 C 146.011719 141.183594 141.09375 141.730469 136.234375 142.816406 L 145.132812 157.347656 L 127.566406 248.933594 L 151.003906 270.175781 L 174.441406 248.933594 L 156.875 157.347656 L 165.769531 142.816406 C 160.902344 141.726562 155.976562 141.179688 150.988281 141.171875 Z M 150.988281 141.171875 " fill-opacity="1" fill-rule="nonzero"/><g clip-path="url(#329f1e8eb1)"><path fill="#ffffff" d="M 221.945312 220.292969 C 221.371094 225.410156 220.296875 230.417969 218.71875 235.320312 C 217.144531 240.222656 215.09375 244.917969 212.578125 249.40625 C 200.222656 269.953125 175.476562 279.695312 152.238281 279.117188 C 135.957031 278.730469 117.714844 274.078125 103.75 265.496094 C 91.808594 258.15625 87.328125 246.371094 84.269531 233.269531 C 81.699219 222.230469 80.25 210.769531 82.125 199.5 C 84.007812 188.195312 89.628906 178.101562 95.898438 168.652344 C 101.90625 159.546875 109.277344 151.183594 119.46875 146.726562 C 125.402344 144.132812 131.558594 142.292969 137.941406 141.203125 C 144.324219 140.113281 150.746094 139.808594 157.203125 140.285156 C 162.886719 140.664062 168.445312 141.710938 173.878906 143.421875 C 179.3125 145.128906 184.464844 147.457031 189.339844 150.402344 C 194.304688 153.707031 198.792969 157.566406 202.804688 161.976562 C 206.820312 166.386719 210.238281 171.21875 213.0625 176.472656 C 216.214844 181.480469 218.78125 186.773438 220.75 192.355469 C 223.25 200.941406 223.15625 211.503906 221.945312 220.292969 Z M 221.945312 220.292969 " fill-opacity="1" fill-rule="nonzero"/></g><path fill="#f2ca82" d="M 206.546875 204.449219 C 206.546875 205.898438 206.476562 207.347656 206.332031 208.792969 C 206.191406 210.238281 205.976562 211.671875 205.695312 213.09375 C 205.410156 214.515625 205.058594 215.921875 204.636719 217.3125 C 204.214844 218.703125 203.726562 220.066406 203.171875 221.40625 C 202.617188 222.75 201.996094 224.058594 201.3125 225.339844 C 200.628906 226.617188 199.882812 227.863281 199.078125 229.070312 C 198.273438 230.277344 197.40625 231.441406 196.488281 232.5625 C 195.566406 233.683594 194.59375 234.757812 193.566406 235.785156 C 192.539062 236.808594 191.464844 237.785156 190.34375 238.703125 C 189.222656 239.625 188.058594 240.488281 186.851562 241.296875 C 185.644531 242.101562 184.402344 242.847656 183.121094 243.53125 C 181.839844 244.214844 180.53125 244.835938 179.191406 245.390625 C 177.847656 245.945312 176.484375 246.433594 175.09375 246.855469 C 173.707031 247.277344 172.300781 247.628906 170.878906 247.910156 C 169.453125 248.195312 168.019531 248.40625 166.574219 248.550781 C 165.128906 248.691406 163.683594 248.761719 162.230469 248.761719 C 160.78125 248.761719 159.332031 248.691406 157.886719 248.550781 C 156.445312 248.40625 155.007812 248.195312 153.585938 247.910156 C 152.164062 247.628906 150.757812 247.277344 149.367188 246.855469 C 147.980469 246.433594 146.613281 245.945312 145.273438 245.390625 C 143.933594 244.835938 142.621094 244.214844 141.34375 243.53125 C 140.0625 242.847656 138.820312 242.101562 137.613281 241.296875 C 136.40625 240.488281 135.242188 239.625 134.117188 238.703125 C 132.996094 237.785156 131.921875 236.808594 130.894531 235.785156 C 129.871094 234.757812 128.898438 233.683594 127.976562 232.5625 C 127.054688 231.441406 126.191406 230.277344 125.386719 229.070312 C 124.578125 227.863281 123.832031 226.617188 123.148438 225.339844 C 122.464844 224.058594 121.84375 222.75 121.289062 221.40625 C 120.734375 220.066406 120.246094 218.703125 119.824219 217.3125 C 119.402344 215.921875 119.050781 214.515625 118.769531 213.09375 C 118.484375 211.671875 118.273438 210.238281 118.128906 208.792969 C 117.988281 207.347656 117.917969 205.898438 117.917969 204.449219 C 117.917969 202.996094 117.988281 201.550781 118.128906 200.105469 C 118.273438 198.660156 118.484375 197.226562 118.769531 195.804688 C 119.050781 194.378906 119.402344 192.972656 119.824219 191.585938 C 120.246094 190.195312 120.734375 188.832031 121.289062 187.492188 C 121.84375 186.148438 122.464844 184.839844 123.148438 183.558594 C 123.832031 182.277344 124.578125 181.035156 125.386719 179.828125 C 126.191406 178.621094 127.054688 177.457031 127.976562 176.335938 C 128.898438 175.214844 129.871094 174.140625 130.894531 173.113281 C 131.921875 172.085938 132.996094 171.113281 134.117188 170.191406 C 135.242188 169.273438 136.40625 168.410156 137.613281 167.601562 C 138.820312 166.796875 140.0625 166.050781 141.34375 165.367188 C 142.621094 164.683594 143.933594 164.0625 145.273438 163.507812 C 146.613281 162.953125 147.980469 162.464844 149.367188 162.042969 C 150.757812 161.621094 152.164062 161.269531 153.585938 160.984375 C 155.007812 160.703125 156.445312 160.488281 157.886719 160.347656 C 159.332031 160.207031 160.78125 160.132812 162.230469 160.132812 C 163.683594 160.132812 165.128906 160.207031 166.574219 160.347656 C 168.019531 160.488281 169.453125 160.703125 170.878906 160.984375 C 172.300781 161.269531 173.707031 161.621094 175.09375 162.042969 C 176.484375 162.464844 177.847656 162.953125 179.191406 163.507812 C 180.53125 164.0625 181.839844 164.683594 183.121094 165.367188 C 184.402344 166.050781 185.644531 166.796875 186.851562 167.601562 C 188.058594 168.410156 189.222656 169.273438 190.34375 170.191406 C 191.464844 171.113281 192.539062 172.085938 193.566406 173.113281 C 194.59375 174.140625 195.566406 175.214844 196.488281 176.335938 C 197.40625 177.457031 198.273438 178.621094 199.078125 179.828125 C 199.882812 181.035156 200.628906 182.277344 201.3125 183.558594 C 201.996094 184.839844 202.617188 186.148438 203.171875 187.492188 C 203.726562 188.832031 204.214844 190.195312 204.636719 191.585938 C 205.058594 192.972656 205.410156 194.378906 205.695312 195.804688 C 205.976562 197.226562 206.191406 198.660156 206.332031 200.105469 C 206.476562 201.550781 206.546875 202.996094 206.546875 204.449219 Z M 206.546875 204.449219 " fill-opacity="1" fill-rule="nonzero"/><path fill="#800000" d="M 185.847656 197.90625 C 185.847656 198.480469 185.820312 199.050781 185.765625 199.621094 C 185.707031 200.191406 185.625 200.757812 185.511719 201.320312 C 185.402344 201.882812 185.261719 202.4375 185.097656 202.984375 C 184.929688 203.535156 184.738281 204.074219 184.519531 204.601562 C 184.296875 205.132812 184.054688 205.648438 183.785156 206.152344 C 183.515625 206.660156 183.21875 207.148438 182.902344 207.625 C 182.582031 208.101562 182.242188 208.5625 181.878906 209.003906 C 181.515625 209.449219 181.132812 209.871094 180.726562 210.277344 C 180.320312 210.683594 179.898438 211.066406 179.453125 211.429688 C 179.011719 211.792969 178.550781 212.132812 178.074219 212.453125 C 177.597656 212.769531 177.109375 213.0625 176.601562 213.335938 C 176.097656 213.605469 175.582031 213.847656 175.050781 214.070312 C 174.523438 214.289062 173.984375 214.480469 173.433594 214.648438 C 172.886719 214.8125 172.332031 214.953125 171.769531 215.0625 C 171.207031 215.175781 170.640625 215.257812 170.070312 215.316406 C 169.5 215.371094 168.929688 215.398438 168.355469 215.398438 C 167.785156 215.398438 167.210938 215.371094 166.640625 215.316406 C 166.070312 215.257812 165.507812 215.175781 164.945312 215.0625 C 164.382812 214.953125 163.828125 214.8125 163.277344 214.648438 C 162.730469 214.480469 162.191406 214.289062 161.664062 214.070312 C 161.132812 213.847656 160.617188 213.605469 160.109375 213.335938 C 159.605469 213.0625 159.113281 212.769531 158.636719 212.453125 C 158.160156 212.132812 157.703125 211.792969 157.257812 211.429688 C 156.816406 211.066406 156.394531 210.683594 155.988281 210.277344 C 155.582031 209.871094 155.199219 209.449219 154.835938 209.003906 C 154.472656 208.5625 154.128906 208.101562 153.8125 207.625 C 153.492188 207.148438 153.199219 206.660156 152.929688 206.152344 C 152.660156 205.648438 152.414062 205.132812 152.195312 204.601562 C 151.976562 204.074219 151.785156 203.535156 151.617188 202.984375 C 151.449219 202.4375 151.3125 201.882812 151.199219 201.320312 C 151.089844 200.757812 151.003906 200.191406 150.949219 199.621094 C 150.890625 199.050781 150.863281 198.480469 150.863281 197.90625 C 150.863281 197.335938 150.890625 196.761719 150.949219 196.191406 C 151.003906 195.621094 151.089844 195.058594 151.199219 194.496094 C 151.3125 193.933594 151.449219 193.378906 151.617188 192.828125 C 151.785156 192.28125 151.976562 191.742188 152.195312 191.214844 C 152.414062 190.683594 152.660156 190.167969 152.929688 189.660156 C 153.199219 189.15625 153.492188 188.664062 153.8125 188.1875 C 154.128906 187.710938 154.472656 187.253906 154.835938 186.808594 C 155.199219 186.367188 155.582031 185.945312 155.988281 185.539062 C 156.394531 185.132812 156.816406 184.75 157.257812 184.386719 C 157.703125 184.023438 158.160156 183.679688 158.636719 183.363281 C 159.113281 183.042969 159.605469 182.75 160.109375 182.480469 C 160.617188 182.210938 161.132812 181.964844 161.664062 181.746094 C 162.191406 181.527344 162.730469 181.335938 163.277344 181.167969 C 163.828125 181 164.382812 180.863281 164.945312 180.75 C 165.507812 180.640625 166.070312 180.554688 166.640625 180.5 C 167.210938 180.441406 167.785156 180.414062 168.355469 180.414062 C 168.929688 180.414062 169.5 180.441406 170.070312 180.5 C 170.640625 180.554688 171.207031 180.640625 171.769531 180.75 C 172.332031 180.863281 172.886719 181 173.433594 181.167969 C 173.984375 181.335938 174.523438 181.527344 175.050781 181.746094 C 175.582031 181.964844 176.097656 182.210938 176.601562 182.480469 C 177.109375 182.75 177.597656 183.042969 178.074219 183.363281 C 178.550781 183.679688 179.011719 184.023438 179.453125 184.386719 C 179.898438 184.75 180.320312 185.132812 180.726562 185.539062 C 181.132812 185.945312 181.515625 186.367188 181.878906 186.808594 C 182.242188 187.253906 182.582031 187.710938 182.902344 188.1875 C 183.21875 188.664062 183.515625 189.15625 183.785156 189.660156 C 184.054688 190.167969 184.296875 190.683594 184.519531 191.214844 C 184.738281 191.742188 184.929688 192.28125 185.097656 192.828125 C 185.261719 193.378906 185.402344 193.933594 185.511719 194.496094 C 185.625 195.058594 185.707031 195.621094 185.765625 196.191406 C 185.820312 196.761719 185.847656 197.335938 185.847656 197.90625 Z M 185.847656 197.90625 " fill-opacity="1" fill-rule="nonzero"/><path fill="#ffffff" d="M 123.066406 177.339844 C 124.121094 177.703125 125.148438 178.117188 126.152344 178.578125 C 127.152344 179.035156 128.105469 179.535156 129.015625 180.070312 C 129.921875 180.605469 130.765625 181.171875 131.542969 181.765625 C 132.320312 182.359375 133.019531 182.96875 133.640625 183.59375 C 134.257812 184.222656 134.789062 184.851562 135.226562 185.488281 C 135.664062 186.125 136 186.753906 136.238281 187.375 C 136.476562 188 136.609375 188.601562 136.640625 189.183594 C 136.667969 189.765625 136.59375 190.320312 136.414062 190.839844 C 136.234375 191.363281 135.953125 191.84375 135.570312 192.285156 C 135.1875 192.726562 134.710938 193.117188 134.136719 193.460938 C 133.566406 193.800781 132.914062 194.089844 132.175781 194.320312 C 131.441406 194.550781 130.636719 194.722656 129.761719 194.835938 C 128.886719 194.945312 127.960938 194.996094 126.980469 194.980469 C 126.003906 194.96875 124.992188 194.890625 123.945312 194.753906 C 122.902344 194.617188 121.84375 194.421875 120.769531 194.164062 C 119.699219 193.910156 118.636719 193.601562 117.578125 193.234375 C 116.523438 192.871094 115.492188 192.457031 114.492188 192 C 113.492188 191.539062 112.539062 191.042969 111.628906 190.503906 C 110.722656 189.96875 109.878906 189.402344 109.101562 188.808594 C 108.324219 188.21875 107.625 187.605469 107.003906 186.980469 C 106.382812 186.355469 105.855469 185.722656 105.417969 185.085938 C 104.980469 184.449219 104.644531 183.820312 104.40625 183.199219 C 104.167969 182.578125 104.035156 181.972656 104.003906 181.390625 C 103.976562 180.808594 104.050781 180.257812 104.230469 179.734375 C 104.410156 179.210938 104.691406 178.730469 105.074219 178.289062 C 105.457031 177.851562 105.933594 177.457031 106.503906 177.117188 C 107.078125 176.773438 107.730469 176.484375 108.464844 176.253906 C 109.203125 176.023438 110.007812 175.851562 110.882812 175.742188 C 111.757812 175.628906 112.683594 175.582031 113.664062 175.59375 C 114.640625 175.609375 115.652344 175.683594 116.699219 175.820312 C 117.742188 175.957031 118.800781 176.152344 119.871094 176.410156 C 120.945312 176.664062 122.007812 176.976562 123.066406 177.339844 Z M 123.066406 177.339844 " fill-opacity="1" fill-rule="nonzero"/><path stroke-linecap="round" transform="matrix(0.570291, 0.487101, -0.487101, 0.570291, 247.242586, 257.556223)" fill="none" stroke-linejoin="miter" d="M 34.999324 35.003103 L 123.29525 35.000922 " stroke="#f2ca82" stroke-width="70" stroke-opacity="1" stroke-miterlimit="4"/></svg>